<?xml version="1.0" encoding="utf-8"?>
<!-- Generator: Adobe Illustrator 16.0.0, SVG Export Plug-In . SVG Version: 6.00 Build 0)  -->
<!DOCTYPE svg PUBLIC "-//W3C//DTD SVG 1.1//EN" "http://www.w3.org/Graphics/SVG/1.1/DTD/svg11.dtd">
<svg version="1.1" xmlns="http://www.w3.org/2000/svg" xmlns:xlink="http://www.w3.org/1999/xlink" x="0px" y="0px" width="199px"
	 height="65px" viewBox="0 0 199 65" enable-background="new 0 0 199 65" xml:space="preserve">
<g id="Background">
</g>
<g id="Colours">
</g>
<g id="footer">
</g>
<g id="Content">
</g>
<g id="Hero">
</g>
<g id="Nav">
	<g id="Diamond_Tear_1">
	</g>
	<g>
		<g>
			<g>
				<path fill="#514E4E" d="M1.973,55.959V35.068H14.41v1.803H3.963v7.149h8.303v1.806H3.963v8.33h10.756v1.803H1.973z"/>
				<path fill="#514E4E" d="M42.949,55.959V38.24l-8.143,10.04L26.66,38.24v17.719h-1.986V35.068h1.986l8.146,10.072l8.143-10.072
					h1.992v20.891H42.949z"/>
				<path fill="#514E4E" d="M63.031,47.691h-4.412v8.268h-1.99V35.068h6.25c4.975,0,6.871,3.234,6.871,6.219
					C69.75,44.488,67.541,47.691,63.031,47.691z M63.064,36.871h-4.445v9.016h4.475c3.234,0,4.664-2.393,4.664-4.539
					C67.758,39.514,66.922,36.871,63.064,36.871z"/>
				<path fill="#514E4E" d="M89.098,56.303c-5.971,0-10.787-4.82-10.787-10.789c0-5.968,4.816-10.787,10.787-10.787
					c5.969,0,10.787,4.819,10.787,10.787C99.885,51.482,95.066,56.303,89.098,56.303z M89.098,36.654
					c-4.85,0-8.799,4.012-8.799,8.859c0,4.852,3.949,8.861,8.799,8.861c4.848,0,8.799-4.01,8.799-8.861
					C97.896,40.666,93.945,36.654,89.098,36.654z"/>
				<path fill="#514E4E" d="M122.879,55.959l-7.088-9.822h-3.42v9.822h-1.99V35.068h5.377c4.979,0,6.656,3.234,6.656,5.315
					c0,2.549-1.307,4.883-4.322,5.565l7.242,10.01H122.879z M115.918,36.871h-3.547v7.461h4.012c2.766,0,4.039-1.553,4.039-3.884
					C120.422,38.737,119.18,36.871,115.918,36.871z"/>
				<path fill="#514E4E" d="M134.621,55.959V35.068h1.992v20.891H134.621z"/>
				<path fill="#514E4E" d="M156.67,56.303c-5.191,0-8.795-3.73-8.795-8.27V35.068h1.986v13.057c0,3.607,3.141,6.344,6.809,6.344
					c3.672,0,6.811-2.736,6.811-6.344V35.068h1.99v12.965C165.471,52.572,161.863,56.303,156.67,56.303z"/>
				<path fill="#514E4E" d="M195.039,55.959V38.24l-8.146,10.041l-8.145-10.041v17.719h-1.99V35.068h1.99l8.145,10.072l8.146-10.072
					h1.988v20.891H195.039z"/>
			</g>
			<g>
				<path fill="#514E4E" d="M80.977,63.35v-1.71h16.242v1.71H80.977z"/>
			</g>
		</g>
		<g>
			<g>
				<path fill="#514E4E" d="M37.408,1.831c0.889,0.032,2.396,0.046,4.525,0.046c2.113,0,3.613-0.014,4.502-0.046
					c-0.072,0.763-0.111,1.444-0.111,2.05c0,0.538,0.018,0.976,0.051,1.316h-0.371c-0.082-0.828-0.188-1.445-0.316-1.843
					c-0.125-0.398-0.354-0.692-0.674-0.878c-0.318-0.186-0.812-0.277-1.475-0.277h-0.871v9.123c0,0.441,0.043,0.768,0.127,0.973
					c0.082,0.206,0.236,0.348,0.453,0.429c0.221,0.077,0.566,0.124,1.041,0.14v0.32c-0.564-0.029-1.348-0.046-2.355-0.046
					c-1.072,0-1.859,0.017-2.373,0.046v-0.32c0.477-0.016,0.824-0.062,1.043-0.14c0.217-0.081,0.369-0.223,0.453-0.429
					c0.086-0.205,0.125-0.531,0.125-0.973V2.199h-0.869c-0.664,0-1.154,0.092-1.477,0.277s-0.545,0.479-0.672,0.878
					c-0.129,0.397-0.236,1.015-0.318,1.843H37.48c0.029-0.341,0.045-0.778,0.045-1.316C37.525,3.258,37.486,2.57,37.408,1.831z"/>
				<path fill="#514E4E" d="M61.076,2.653c-0.066,0.184-0.1,0.474-0.1,0.877v7.954c0,0.403,0.033,0.693,0.1,0.877
					c0.064,0.182,0.186,0.309,0.361,0.375c0.174,0.069,0.453,0.111,0.84,0.127v0.32c-0.445-0.029-1.127-0.046-2.051-0.046
					c-0.857,0-1.535,0.017-2.037,0.046v-0.32c0.387-0.016,0.666-0.058,0.844-0.127c0.176-0.066,0.293-0.193,0.361-0.375
					c0.062-0.184,0.096-0.474,0.096-0.877V7.633h-5.215v3.852c0,0.403,0.033,0.693,0.1,0.877c0.064,0.182,0.184,0.309,0.359,0.375
					c0.174,0.069,0.453,0.111,0.842,0.127v0.32c-0.49-0.029-1.17-0.046-2.035-0.046c-0.92,0-1.604,0.017-2.053,0.046v-0.32
					c0.387-0.016,0.668-0.058,0.842-0.127c0.176-0.066,0.297-0.193,0.361-0.375c0.064-0.184,0.096-0.474,0.096-0.877V3.53
					c0-0.403-0.031-0.693-0.096-0.877c-0.064-0.183-0.186-0.307-0.361-0.378c-0.174-0.066-0.455-0.107-0.842-0.123V1.831
					c0.445,0.032,1.127,0.046,2.053,0.046c0.865,0,1.545-0.014,2.035-0.046v0.321c-0.389,0.016-0.668,0.057-0.842,0.123
					c-0.176,0.071-0.295,0.195-0.359,0.378c-0.066,0.184-0.1,0.474-0.1,0.877v3.781h5.215V3.53c0-0.403-0.033-0.693-0.096-0.877
					c-0.068-0.183-0.186-0.307-0.361-0.378c-0.178-0.066-0.457-0.107-0.844-0.123V1.831c0.502,0.032,1.18,0.046,2.037,0.046
					c0.918,0,1.602-0.014,2.051-0.046v0.321c-0.387,0.016-0.666,0.057-0.84,0.123C61.262,2.347,61.141,2.471,61.076,2.653z"/>
				<path fill="#514E4E" d="M75.648,13.184c-0.725-0.029-1.949-0.046-3.67-0.046c-2.053,0-3.602,0.017-4.65,0.046v-0.32
					c0.387-0.016,0.666-0.058,0.84-0.127c0.174-0.068,0.295-0.193,0.361-0.375c0.066-0.184,0.1-0.474,0.1-0.877V3.53
					c0-0.403-0.033-0.693-0.1-0.877c-0.066-0.183-0.188-0.307-0.361-0.378c-0.174-0.066-0.453-0.107-0.84-0.123V1.831
					c1.049,0.032,2.598,0.046,4.65,0.046c1.57,0,2.688-0.014,3.352-0.046c-0.072,0.698-0.109,1.331-0.109,1.894
					c0,0.418,0.016,0.75,0.045,0.996H74.9c-0.082-0.695-0.176-1.211-0.297-1.55c-0.117-0.341-0.312-0.586-0.594-0.742
					c-0.279-0.153-0.701-0.229-1.264-0.229h-1.33c-0.389,0-0.666,0.033-0.842,0.095c-0.178,0.062-0.295,0.183-0.363,0.364
					c-0.064,0.179-0.096,0.469-0.096,0.872v3.781h1.062c0.541,0,0.896-0.16,1.074-0.481c0.178-0.32,0.287-0.649,0.33-0.982
					c0.041-0.334,0.068-0.551,0.084-0.65h0.367C73,5.725,72.98,6.229,72.98,6.709l0.008,0.77c0,0.541,0.031,1.299,0.094,2.274
					h-0.367c-0.01-0.071-0.041-0.33-0.092-0.776C72.574,8.535,72.43,8.2,72.189,7.974c-0.24-0.228-0.576-0.341-1.012-0.341h-1.062
					v3.852c0,0.403,0.031,0.691,0.096,0.873c0.068,0.178,0.186,0.302,0.363,0.366c0.176,0.062,0.453,0.094,0.842,0.094h1.172
					c0.67,0,1.178-0.09,1.523-0.269c0.348-0.178,0.598-0.459,0.75-0.852c0.156-0.395,0.275-0.967,0.359-1.723h0.367
					c-0.031,0.287-0.047,0.672-0.047,1.156C75.541,11.738,75.578,12.421,75.648,13.184z"/>
				<path fill="#514E4E" d="M89.859,2.764c-0.064,0.208-0.098,0.518-0.098,0.93v4.822c0,0.77-0.051,1.428-0.152,1.977
					c-0.102,0.553-0.271,1.027-0.504,1.422c-0.271,0.459-0.668,0.822-1.188,1.094c-0.52,0.27-1.102,0.402-1.752,0.402
					c-1.174,0-2.07-0.291-2.691-0.867c-0.318-0.298-0.561-0.614-0.732-0.947c-0.17-0.328-0.289-0.729-0.354-1.197
					c-0.072-0.471-0.105-1.083-0.105-1.834V3.53c0-0.403-0.031-0.693-0.096-0.877C82.121,2.471,82,2.347,81.826,2.275
					c-0.174-0.066-0.455-0.107-0.842-0.123V1.831c0.455,0.032,1.137,0.046,2.051,0.046c0.863,0,1.543-0.014,2.043-0.046v0.321
					c-0.385,0.016-0.664,0.057-0.84,0.123c-0.176,0.071-0.297,0.195-0.359,0.378c-0.068,0.184-0.1,0.474-0.1,0.877v5.31
					c0,0.854,0.059,1.566,0.172,2.127c0.115,0.565,0.359,1.02,0.723,1.363c0.371,0.345,0.916,0.518,1.637,0.518
					c1.131,0,1.928-0.365,2.389-1.089c0.457-0.726,0.684-1.745,0.684-3.062V3.693c0-0.396-0.045-0.701-0.135-0.914
					c-0.092-0.213-0.24-0.369-0.443-0.463c-0.209-0.094-0.5-0.148-0.877-0.164V1.831c0.389,0.032,0.934,0.046,1.639,0.046
					c0.641,0,1.137-0.014,1.486-0.046v0.321c-0.371,0.016-0.646,0.07-0.826,0.16C90.047,2.404,89.924,2.555,89.859,2.764z"/>
				<path fill="#514E4E" d="M104.895,2.764c-0.066,0.208-0.102,0.518-0.102,0.93v9.568h-0.369L97.691,2.857v8.465
					c0,0.41,0.039,0.724,0.111,0.932s0.207,0.357,0.412,0.446c0.199,0.095,0.51,0.147,0.936,0.163v0.32
					c-0.383-0.029-0.926-0.046-1.639-0.046c-0.637,0-1.133,0.017-1.488,0.046v-0.32c0.373-0.016,0.648-0.068,0.826-0.163
					c0.182-0.089,0.305-0.238,0.373-0.446c0.066-0.208,0.102-0.521,0.102-0.932V3.53c0-0.403-0.033-0.693-0.098-0.877
					c-0.064-0.183-0.186-0.307-0.359-0.378c-0.176-0.066-0.457-0.107-0.844-0.123V1.831c0.35,0.032,0.846,0.046,1.488,0.046
					c0.48,0,0.898-0.014,1.254-0.046l5.658,8.721V3.693c0-0.412-0.033-0.722-0.105-0.93c-0.07-0.209-0.205-0.359-0.41-0.451
					c-0.203-0.09-0.514-0.145-0.939-0.16V1.831c0.383,0.032,0.926,0.046,1.639,0.046c0.635,0,1.129-0.014,1.486-0.046v0.321
					c-0.371,0.016-0.646,0.07-0.826,0.16C105.088,2.404,104.965,2.555,104.895,2.764z"/>
				<path fill="#514E4E" d="M115.031,13.09c0.367,0,0.707-0.076,1.023-0.227c0.314-0.151,0.572-0.391,0.768-0.711
					s0.293-0.719,0.293-1.199c0-0.414-0.102-0.783-0.303-1.109c-0.199-0.326-0.473-0.624-0.814-0.895
					c-0.346-0.273-0.805-0.582-1.383-0.926c-0.633-0.383-1.146-0.723-1.533-1.025c-0.385-0.303-0.701-0.662-0.949-1.084
					s-0.373-0.913-0.373-1.483c0-0.604,0.139-1.118,0.412-1.534c0.273-0.417,0.639-0.73,1.096-0.938
					c0.455-0.203,0.959-0.309,1.506-0.309c0.328,0,0.611,0.027,0.85,0.084c0.238,0.053,0.436,0.122,0.592,0.205
					c0.156,0.077,0.33,0.183,0.516,0.307c0.24,0.15,0.424,0.225,0.547,0.225c0.1,0,0.178-0.053,0.23-0.166
					c0.051-0.111,0.092-0.29,0.125-0.535h0.369c-0.055,0.625-0.082,1.717-0.082,3.272h-0.367c-0.041-0.55-0.158-1.056-0.355-1.519
					c-0.195-0.467-0.482-0.843-0.859-1.133c-0.379-0.289-0.852-0.434-1.416-0.434c-0.377,0-0.713,0.078-1.01,0.236
					c-0.299,0.153-0.529,0.375-0.695,0.656c-0.17,0.281-0.252,0.605-0.252,0.97c0,0.581,0.176,1.046,0.525,1.401
					c0.35,0.354,0.758,0.674,1.225,0.96c0.467,0.283,0.781,0.476,0.943,0.574c0.674,0.424,1.205,0.79,1.596,1.102
					c0.393,0.31,0.705,0.669,0.941,1.079c0.234,0.41,0.354,0.884,0.354,1.429c0,0.659-0.15,1.216-0.455,1.675
					c-0.303,0.455-0.713,0.799-1.225,1.027c-0.516,0.229-1.092,0.344-1.727,0.344c-0.512,0-0.934-0.053-1.26-0.16
					c-0.33-0.107-0.639-0.252-0.934-0.433c-0.24-0.153-0.422-0.229-0.547-0.229c-0.1,0-0.176,0.057-0.227,0.17
					c-0.053,0.111-0.096,0.291-0.125,0.535h-0.369c0.041-0.586,0.061-1.866,0.061-3.846h0.371c0.072,1.088,0.34,1.966,0.797,2.637
					C113.369,12.754,114.08,13.09,115.031,13.09z"/>
				<path fill="#514E4E" d="M132.326,13.184c-0.725-0.029-1.949-0.046-3.672-0.046c-2.051,0-3.604,0.017-4.652,0.046v-0.32
					c0.387-0.016,0.666-0.058,0.842-0.127c0.176-0.068,0.295-0.193,0.359-0.375c0.068-0.184,0.1-0.474,0.1-0.877V3.53
					c0-0.403-0.031-0.693-0.1-0.877c-0.064-0.183-0.184-0.307-0.359-0.378c-0.176-0.066-0.455-0.107-0.842-0.123V1.831
					c1.049,0.032,2.602,0.046,4.652,0.046c1.57,0,2.689-0.014,3.35-0.046c-0.072,0.698-0.107,1.331-0.107,1.894
					c0,0.418,0.014,0.75,0.043,0.996h-0.365c-0.08-0.695-0.178-1.211-0.297-1.55c-0.115-0.341-0.312-0.586-0.592-0.742
					c-0.279-0.153-0.703-0.231-1.264-0.231h-1.334c-0.387,0-0.664,0.035-0.842,0.097c-0.174,0.062-0.293,0.183-0.359,0.364
					c-0.064,0.179-0.096,0.469-0.096,0.872v3.781h1.062c0.539,0,0.893-0.16,1.074-0.481c0.176-0.32,0.287-0.649,0.328-0.982
					c0.041-0.334,0.07-0.551,0.086-0.65h0.367c-0.035,0.527-0.053,1.031-0.053,1.512l0.008,0.77c0,0.541,0.031,1.299,0.092,2.274
					h-0.367c-0.012-0.071-0.041-0.33-0.092-0.776c-0.049-0.441-0.193-0.776-0.432-1.003c-0.24-0.228-0.578-0.341-1.012-0.341h-1.062
					v3.852c0,0.403,0.031,0.691,0.096,0.873c0.066,0.178,0.186,0.302,0.359,0.366c0.178,0.062,0.455,0.094,0.842,0.094h1.174
					c0.67,0,1.178-0.09,1.525-0.269c0.348-0.178,0.596-0.459,0.75-0.852c0.158-0.395,0.273-0.967,0.359-1.723h0.365
					c-0.029,0.287-0.047,0.672-0.047,1.156C132.215,11.738,132.248,12.421,132.326,13.184z"/>
				<path fill="#514E4E" d="M146.088,13.184c-0.727-0.029-1.951-0.046-3.674-0.046c-2.051,0-3.6,0.017-4.648,0.046v-0.32
					c0.383-0.016,0.666-0.058,0.842-0.127c0.174-0.068,0.297-0.193,0.357-0.375c0.066-0.184,0.1-0.474,0.1-0.877V3.53
					c0-0.403-0.033-0.693-0.1-0.877c-0.061-0.183-0.184-0.307-0.357-0.378c-0.176-0.066-0.459-0.107-0.842-0.123V1.831
					c1.049,0.032,2.598,0.046,4.648,0.046c1.572,0,2.688-0.014,3.352-0.046c-0.07,0.698-0.109,1.331-0.109,1.894
					c0,0.418,0.016,0.75,0.047,0.996h-0.369c-0.076-0.695-0.178-1.211-0.293-1.55c-0.119-0.341-0.314-0.586-0.594-0.741
					c-0.281-0.154-0.701-0.232-1.264-0.232h-1.33c-0.391,0-0.668,0.035-0.844,0.097c-0.174,0.062-0.295,0.183-0.361,0.364
					c-0.062,0.179-0.098,0.469-0.098,0.872v3.781h1.066c0.537,0,0.895-0.16,1.07-0.481c0.18-0.32,0.287-0.649,0.33-0.982
					c0.041-0.334,0.068-0.551,0.088-0.65h0.365c-0.035,0.527-0.055,1.031-0.055,1.512l0.01,0.77c0,0.541,0.029,1.299,0.092,2.274
					h-0.367c-0.01-0.071-0.039-0.33-0.088-0.776c-0.051-0.441-0.195-0.776-0.438-1.003c-0.238-0.228-0.576-0.341-1.008-0.341h-1.066
					v3.852c0,0.403,0.035,0.691,0.098,0.873c0.066,0.178,0.188,0.302,0.361,0.366c0.176,0.062,0.453,0.094,0.844,0.094h1.172
					c0.666,0,1.176-0.09,1.523-0.269c0.348-0.178,0.598-0.459,0.75-0.852c0.152-0.395,0.273-0.967,0.357-1.723h0.369
					c-0.033,0.287-0.049,0.672-0.049,1.156C145.977,11.738,146.016,12.421,146.088,13.184z"/>
				<path fill="#514E4E" d="M160.395,2.764c-0.066,0.208-0.1,0.518-0.1,0.93v9.568h-0.369l-6.734-10.404v8.465
					c0,0.41,0.037,0.724,0.111,0.932s0.209,0.357,0.41,0.446c0.203,0.095,0.512,0.147,0.936,0.163v0.32
					c-0.381-0.029-0.926-0.046-1.637-0.046c-0.635,0-1.133,0.017-1.486,0.046v-0.32c0.371-0.016,0.646-0.068,0.826-0.163
					c0.18-0.089,0.305-0.238,0.371-0.446c0.068-0.208,0.104-0.521,0.104-0.932V3.53c0-0.403-0.035-0.693-0.098-0.877
					c-0.066-0.183-0.186-0.307-0.361-0.378c-0.174-0.066-0.459-0.107-0.842-0.123V1.831c0.348,0.032,0.846,0.046,1.486,0.046
					c0.479,0,0.898-0.014,1.254-0.046l5.66,8.722V3.693c0-0.412-0.035-0.722-0.107-0.93c-0.07-0.209-0.205-0.359-0.41-0.451
					c-0.203-0.09-0.518-0.145-0.939-0.16V1.831c0.381,0.032,0.926,0.046,1.637,0.046c0.637,0,1.131-0.014,1.488-0.046v0.321
					c-0.373,0.016-0.646,0.07-0.826,0.16C160.588,2.404,160.463,2.555,160.395,2.764z"/>
			</g>
		</g>
	</g>
</g>
<g id="Grid" display="none">
</g>
</svg>
